<svg width="155" height="183" viewBox="0 0 155 183" fill="none" xmlns="http://www.w3.org/2000/svg">
<path fill-rule="evenodd" clip-rule="evenodd" d="M23.63 60.7C51.98 32.59 99.05 31.6 128.69 58.48C158.32 85.37 159.37 129.99 131.02 158.1C102.67 186.21 55.6 187.2 25.97 160.31C-3.67 133.43 -4.72 88.8 23.63 60.7V60.7Z" fill="#BF0000" stroke="#BF0000" stroke-width="5.48" stroke-miterlimit="79.84" stroke-linecap="round"/>
<path fill-rule="evenodd" clip-rule="evenodd" d="M57.96 33.03C66.96 54.9 80.27 57.48 81.21 89.5C74.62 74.2 58.35 49.57 42.24 38.59C29.73 30.79 57.86 33.22 57.96 33.03V33.03Z" fill="url(#paint0_linear)" stroke="black" stroke-width="0.423" stroke-miterlimit="79.84" stroke-linecap="round"/>
<path fill-rule="evenodd" clip-rule="evenodd" d="M116.53 1.29002C101.26 -1.04998 71.84 15.52 69.59 60.59C70.24 60.71 71.92 58.77 72.62 58.12C73.23 57.57 73.97 56.16 74.13 55.67C74.42 54.8 77.13 51.93 77.91 51.56C92.55 44.7 124.31 29.16 125.58 11.37C125.99 5.68998 122.25 2.17002 116.53 1.29002V1.29002Z" fill="url(#paint1_linear)" stroke="black" stroke-width="0.703" stroke-miterlimit="79.84" stroke-linecap="round"/>
<path d="M78.77 46.38C80.87 35.52 103.37 20.66 109.44 13.07" stroke="#FFC17F" stroke-width="1.636" stroke-miterlimit="79.84" stroke-linecap="round" stroke-linejoin="round"/>
<defs>
<linearGradient id="paint0_linear" x1="77.33" y1="76.72" x2="34.8636" y2="16.8755" gradientUnits="userSpaceOnUse">
<stop stop-color="#402100"/>
<stop offset="1" stop-color="#FF8200"/>
</linearGradient>
<linearGradient id="paint1_linear" x1="114.99" y1="33.52" x2="84.7262" y2="3.98683" gradientUnits="userSpaceOnUse">
<stop stop-color="white"/>
<stop offset="1" stop-color="#00FF03"/>
</linearGradient>
</defs>
</svg>
