<svg width="509" height="172" viewBox="0 0 509 172" fill="none" xmlns="http://www.w3.org/2000/svg">
<g clip-path="url(#clip0)">
<path d="M11.6743 46.3948H497.326C500.549 46.3948 503.163 47.6614 503.163 49.2237V143.711C503.163 157.772 479.643 169.171 450.628 169.171H58.3716C29.3576 169.171 5.83716 157.772 5.83716 143.711V49.2237C5.83716 47.6614 8.45053 46.3948 11.6743 46.3948Z" fill="#3D2424" fill-opacity="0.55" stroke="#3D2424" stroke-width="10" stroke-linejoin="round"/>
<path d="M196.128 44.1315L200.423 29.6345C202.849 21.4477 213.335 14.3436 228.54 10.5875L229.254 10.411C243.448 6.90462 260.21 6.82303 274.546 10.1904C288.242 13.4075 298.246 19.4273 301.814 26.5979L310.537 44.1315" stroke="#3D2424" stroke-width="10"/>
</g>
<defs>
<clipPath id="clip0">
<rect width="509" height="172" fill="white"/>
</clipPath>
</defs>
</svg>
